<svg id="Layer_1" data-name="Layer 1" xmlns="http://www.w3.org/2000/svg" viewBox="0 0 24 24"><defs><style>.cls-1{fill:#263ebf;}.cls-2{fill:#673ab7;}.cls-3{fill:#9c27b0;}.cls-4{fill:#b73a5d;}.cls-5{fill:#e42424;}.cls-6{fill:#fff;}</style></defs><title>faviconlogo</title><path class="cls-1" d="M12,12V22a10,10,0,0,1-9.51-6.91Z"/><path class="cls-2" d="M12,12l9.51,3.09A10,10,0,0,1,12,22Z"/><path class="cls-3" d="M22,12a9.85,9.85,0,0,1-.49,3.09L12,12l5.88-8.08A9.94,9.94,0,0,1,22,12Z"/><path class="cls-4" d="M17.88,3.91h0L12,12,6.12,3.92h0a10,10,0,0,1,11.76,0Z"/><path class="cls-5" d="M6.12,3.92,12,12,2.49,15.09A10,10,0,0,1,6.12,3.92Z"/><polygon class="cls-6" points="12 7.38 8 9.69 8 14.31 12 16.62 16 14.31 16 9.69 12 7.38"/></svg>