<svg id="Layer_1" data-name="Layer 1" xmlns="http://www.w3.org/2000/svg" viewBox="0 0 135 30"><defs><style>.cls-1{fill:#fff;}.cls-2{fill:#263ebf;}.cls-3{fill:#673ab7;}.cls-4{fill:#9c27b0;}.cls-5{fill:#b73a5d;}.cls-6{fill:#e42424;}</style></defs><title>logo</title><path class="cls-1" d="M15.24,14.15a5.09,5.09,0,0,0-1.32-.94,13.59,13.59,0,0,0-1.52-.64q-.78-.27-1.52-.5a9.94,9.94,0,0,1-1.32-.49,3.06,3.06,0,0,1-.93-.64A1.28,1.28,0,0,1,8.26,10a1.75,1.75,0,0,1,.59-1.39,2.68,2.68,0,0,1,1.8-.52,3.91,3.91,0,0,1,1.25.18,6.34,6.34,0,0,1,1,.41l.76.41a1.32,1.32,0,0,0,.63.18.9.9,0,0,0,.54-.15,1.62,1.62,0,0,0,.4-.46l1.07-2a6.26,6.26,0,0,0-1.13-.82,8.44,8.44,0,0,0-1.35-.62,8.75,8.75,0,0,0-1.53-.39,10.18,10.18,0,0,0-1.66-.13,7.37,7.37,0,0,0-2.71.46,6.07,6.07,0,0,0-2,1.24A5.25,5.25,0,0,0,4.66,8.2a5.18,5.18,0,0,0-.42,2,5.85,5.85,0,0,0,.36,2.18,4.45,4.45,0,0,0,.94,1.48,4.77,4.77,0,0,0,1.32,1,11.07,11.07,0,0,0,1.51.61q.78.25,1.51.45a8.68,8.68,0,0,1,1.32.47,2.76,2.76,0,0,1,.93.67,1.55,1.55,0,0,1,.36,1.06,2,2,0,0,1-.65,1.63,2.85,2.85,0,0,1-1.82.52A4.22,4.22,0,0,1,8.51,20a7.11,7.11,0,0,1-1.13-.53l-.88-.53a1.45,1.45,0,0,0-.77-.24,1.11,1.11,0,0,0-.55.14,1,1,0,0,0-.39.37l-1.27,2a6.7,6.7,0,0,0,1.28,1A10.11,10.11,0,0,0,6.39,23a10.44,10.44,0,0,0,1.74.5,9,9,0,0,0,1.76.18,7.8,7.8,0,0,0,2.82-.48,6,6,0,0,0,2.09-1.31,5.62,5.62,0,0,0,1.29-2,6.44,6.44,0,0,0,.45-2.4,5,5,0,0,0-.36-2A4.4,4.4,0,0,0,15.24,14.15Z"/><path class="cls-1" d="M20.84,11.9l-.29-1a.88.88,0,0,0-.35-.5,1.09,1.09,0,0,0-.62-.17H17.14V27.64h3.94V22.58a4.69,4.69,0,0,0,.92.61V20.54a2.51,2.51,0,0,1-.92-.67v-5.6a5.78,5.78,0,0,1,.51-.54,2.48,2.48,0,0,1,.41-.29V10.92c-.11.07-.24.13-.34.21A6.57,6.57,0,0,0,20.84,11.9Z"/><path class="cls-1" d="M22.14,13.35a2.9,2.9,0,0,1,.65-.24,3.43,3.43,0,0,1,.78-.08,1.88,1.88,0,0,1,.85.19,1.65,1.65,0,0,1,.65.63A3.63,3.63,0,0,1,25.51,15a8.56,8.56,0,0,1,.15,1.76,7.78,7.78,0,0,1-.19,1.86,3.69,3.69,0,0,1-.53,1.24,2,2,0,0,1-.79.69,2.32,2.32,0,0,1-1,.22,3.06,3.06,0,0,1-1.09-.2l0,0v2.65c.12.06.23.13.35.18a4.51,4.51,0,0,0,1.73.29,5,5,0,0,0,2.3-.52,5.34,5.34,0,0,0,1.78-1.45,6.91,6.91,0,0,0,1.16-2.19,8.76,8.76,0,0,0,.41-2.75,10.23,10.23,0,0,0-.36-2.84,6.68,6.68,0,0,0-1-2.12,4.39,4.39,0,0,0-1.51-1.32A4.06,4.06,0,0,0,24.95,10a5.38,5.38,0,0,0-1.27.14,5.2,5.2,0,0,0-1.08.39,5.39,5.39,0,0,0-.6.38v2.53Z"/><path class="cls-1" d="M41.25,11.66a5.22,5.22,0,0,0-1.87-1.18,7.3,7.3,0,0,0-5.11.11,6.09,6.09,0,0,0-3.35,3.49,7,7,0,0,0-.45,2.51A8.27,8.27,0,0,0,31,19.66a6.33,6.33,0,0,0,1.44,2.21,6,6,0,0,0,2.12,1.34,7.41,7.41,0,0,0,2.6.45,11.18,11.18,0,0,0,1.42-.09,7.88,7.88,0,0,0,1.49-.34,6.85,6.85,0,0,0,1.45-.69,5.85,5.85,0,0,0,1.32-1.14L41.69,20a.82.82,0,0,0-.71-.34,1.48,1.48,0,0,0-.68.17l-.71.37a5.88,5.88,0,0,1-.88.37,3.75,3.75,0,0,1-1.18.17,3,3,0,0,1-2.1-.74,3.72,3.72,0,0,1-1-2.4H42a1.27,1.27,0,0,0,.44-.06.53.53,0,0,0,.27-.23,1.15,1.15,0,0,0,.14-.45,5.59,5.59,0,0,0,0-.73,7,7,0,0,0-.44-2.55A5.4,5.4,0,0,0,41.25,11.66Zm-6.8,3.63a3.34,3.34,0,0,1,.84-1.85,2.38,2.38,0,0,1,1.77-.64,2.46,2.46,0,0,1,1.08.22,2,2,0,0,1,.72.57,2.23,2.23,0,0,1,.39.79,3.48,3.48,0,0,1,.12.92Z"/><path class="cls-1" d="M43.29,16.83a8,8,0,0,0,.49,2.9c.06.16.15.3.22.45V13.54a6.39,6.39,0,0,0-.29.63A8.15,8.15,0,0,0,43.29,16.83Z"/><path class="cls-1" d="M45.1,21.88A5.66,5.66,0,0,0,47,23.21a6,6,0,0,0,2.31.46,10.46,10.46,0,0,0,1.39-.09,7.13,7.13,0,0,0,1.42-.34,6.46,6.46,0,0,0,1.38-.69,6.24,6.24,0,0,0,1.28-1.14L53.67,20a.82.82,0,0,0-.71-.34,1,1,0,0,0-.59.18l-.52.39a3.29,3.29,0,0,1-.68.38,2.82,2.82,0,0,1-1.09.17,2.35,2.35,0,0,1-2-1,5,5,0,0,1-.73-2.91,7.24,7.24,0,0,1,.17-1.62A3.49,3.49,0,0,1,48,14a2.32,2.32,0,0,1,.87-.76A2.74,2.74,0,0,1,50.13,13a3,3,0,0,1,1,.14,4,4,0,0,1,.69.31l.53.31a1,1,0,0,0,.53.14.76.76,0,0,0,.47-.13,2.17,2.17,0,0,0,.34-.34l1-1.39a6.54,6.54,0,0,0-2.11-1.45,6.93,6.93,0,0,0-2.72-.5,7.23,7.23,0,0,0-2.84.52A5.86,5.86,0,0,0,45,12a5.94,5.94,0,0,0-1,1.52v6.65A6.19,6.19,0,0,0,45.1,21.88Z"/><path class="cls-1" d="M62.91,20.39a.46.46,0,0,0-.29-.08.53.53,0,0,0-.22,0l-.2.1-.25.1a1.28,1.28,0,0,1-.36,0,.75.75,0,0,1-.64-.3,1.23,1.23,0,0,1-.22-.76V13h3.21v-2.7H60.71V6.44H58.65a.78.78,0,0,0-.86.61L57,10.27l-2.1.41v1.54a.71.71,0,0,0,.74.78h1.12v6.82A4.69,4.69,0,0,0,57,21.4a3.2,3.2,0,0,0,2,2,4.64,4.64,0,0,0,1.66.27,6.81,6.81,0,0,0,2-.29,5.43,5.43,0,0,0,1.72-.86l-1.2-1.87A1,1,0,0,0,62.91,20.39Z"/><rect class="cls-1" x="64.66" y="10.27" width="1.34" height="13.19"/><path class="cls-1" d="M68.6,23.46V15.37A2.71,2.71,0,0,1,71,13.72a4,4,0,0,1,.74.06,2.7,2.7,0,0,0,.51.06.69.69,0,0,0,.41-.11.57.57,0,0,0,.2-.38l.51-2.9A2.27,2.27,0,0,0,72,10a3.31,3.31,0,0,0-2,.65,6.45,6.45,0,0,0-1.63,1.77l-.22-1.23a2.65,2.65,0,0,0-.12-.43.68.68,0,0,0-.2-.29.87.87,0,0,0-.33-.16,2,2,0,0,0-.49-.05H66V23.46Z"/><path class="cls-1" d="M81.9,19.67a4.51,4.51,0,0,1-1.1.75,2.82,2.82,0,0,1-1.21.27,1.61,1.61,0,0,1-1.31-.53,2.3,2.3,0,0,1-.45-1.51V10.27H73.89v8.37a6.56,6.56,0,0,0,.29,2A4.57,4.57,0,0,0,75,22.24a3.93,3.93,0,0,0,1.41,1,4.62,4.62,0,0,0,1.91.38,5.35,5.35,0,0,0,1.17-.12,5.27,5.27,0,0,0,1-.33,4.81,4.81,0,0,0,.87-.51A7.67,7.67,0,0,0,82.2,22l.24.76a.93.93,0,0,0,1,.66h2.44V10.27H81.9Z"/><rect class="cls-1" x="86.86" y="10.27" width="1.14" height="13.19"/><path class="cls-1" d="M90.81,23.46V13.92a3.65,3.65,0,0,1,.9-.65,2.21,2.21,0,0,1,1-.24,1.75,1.75,0,0,1,1.31.46,2.26,2.26,0,0,1,.45,1.59v8.38h3.94V15.08a2.06,2.06,0,0,1,.53-1.52,1.8,1.8,0,0,1,1.33-.53q1.76,0,1.76,2v8.38H106V15.08a6.82,6.82,0,0,0-.31-2.12,4.23,4.23,0,0,0-.9-1.58,3.83,3.83,0,0,0-1.47-1,5.58,5.58,0,0,0-2-.34,6.06,6.06,0,0,0-1.23.13,5,5,0,0,0-1.17.39,4.35,4.35,0,0,0-1,.7,3.9,3.9,0,0,0-.81,1,3.85,3.85,0,0,0-1.19-1.65,3.1,3.1,0,0,0-2-.62,4.27,4.27,0,0,0-1,.12,4.33,4.33,0,0,0-.89.33,4.42,4.42,0,0,0-.77.5,7.37,7.37,0,0,0-.69.63l-.22-.71a.89.89,0,0,0-.35-.5,1.09,1.09,0,0,0-.62-.17H88V23.46Z"/><path class="cls-2" d="M121,16V26a10,10,0,0,1-9.51-6.91Z"/><path class="cls-3" d="M121,16l9.51,3.09A10,10,0,0,1,121,26Z"/><path class="cls-4" d="M131,16a9.85,9.85,0,0,1-.49,3.09L121,16l5.88-8.08A9.94,9.94,0,0,1,131,16Z"/><path class="cls-5" d="M126.88,7.91h0L121,16l-5.88-8.08h0a10,10,0,0,1,11.76,0Z"/><path class="cls-6" d="M115.12,7.92,121,16l-9.51,3.09a10,10,0,0,1,3.63-11.17Z"/><polygon class="cls-1" points="121 11.38 117 13.69 117 18.31 121 20.62 125 18.31 125 13.69 121 11.38"/></svg>